<svg width="207" height="140" viewBox="0 0 207 140" fill="none" xmlns="http://www.w3.org/2000/svg">
<path d="M151.976 69.8321C151.976 108.589 119.374 140 79.1472 140C40.3002 140 8.57897 110.73 6.43359 73.8187C9.91985 72.7113 15.0535 72.933 16.7391 76.8452C26.4701 99.472 43.6715 116.082 67.8453 119.773C88.4567 122.911 102.095 115.307 108.723 107.962C127.916 86.7747 129.717 42.5551 79.9517 17.5295C72.1749 13.6169 75.256 0 84.0292 0H84.4312C89.2557 0 97.0559 1.16022 100.916 2.70718C129.325 14.0939 151.976 38.6056 151.976 69.8321Z" fill="url(#paint0_linear_701_2)"/>
<path d="M190.9 9.57491C164.391 11.3896 138.27 20.1819 114.33 35.4197C102.848 42.7413 92.9271 50.6262 82.4204 60.7951L77.2163 65.8323L75.1992 64.3305C68.4338 59.2619 58.773 53.7863 49.5677 49.7813C35.2881 43.5548 21.4963 40.4572 7.93232 40.3946C2.46768 40.3633 1.62196 40.4259 0.841298 40.9265C0.0606336 41.4271 -0.0694772 41.6775 0.028106 42.8039L0.125689 44.118L4.51692 46.3082C21.7566 54.944 38.2806 66.8028 57.2117 84.0743C62.7417 89.1118 73.3778 99.7188 75.4271 102.253C76.6633 103.787 78.7776 104.725 80.9242 104.725C84.1446 104.725 84.7299 104.287 91.5609 96.1516C100.539 85.5446 108.833 76.9714 119.762 67.084C147.281 42.1155 174.865 24.3433 201.797 14.2369C205.895 12.7038 206.513 12.2971 206.513 11.0768C206.513 9.44975 205.668 9.2307 199.845 9.26197C196.983 9.29331 192.95 9.44975 190.9 9.57491Z" fill="white"/>
<defs>
<linearGradient id="paint0_linear_701_2" x1="79.1788" y1="136.14" x2="79.1788" y2="15.793" gradientUnits="userSpaceOnUse">
<stop stop-color="#FFC905"/>
<stop offset="1" stop-color="#D90DEE"/>
</linearGradient>
</defs>
</svg>
